<svg xmlns="http://www.w3.org/2000/svg" width="710" height="148" viewBox="0 0 710 148">
  <rect width="710" height="148" rx="12" fill="#0d1117"/>
  <rect x="30" y="20" width="10" height="18" fill="#c4b5fd" rx="1"/>
  <rect x="40" y="20" width="10" height="18" fill="#c4b5fd" rx="1"/>
  <rect x="50" y="20" width="10" height="18" fill="#c4b5fd" rx="1"/>
  <rect x="60" y="20" width="10" height="18" fill="#c4b5fd" rx="1"/>
  <rect x="70" y="20" width="10" height="18" fill="#c4b5fd" rx="1"/>
  <rect x="80" y="20" width="10" height="18" fill="#7c3aed" rx="1"/>
  <rect x="100" y="20" width="10" height="18" fill="#c4b5fd" rx="1"/>
  <rect x="110" y="20" width="10" height="18" fill="#c4b5fd" rx="1"/>
  <rect x="120" y="20" width="10" height="18" fill="#c4b5fd" rx="1"/>
  <rect x="130" y="20" width="10" height="18" fill="#c4b5fd" rx="1"/>
  <rect x="140" y="20" width="10" height="18" fill="#c4b5fd" rx="1"/>
  <rect x="150" y="20" width="10" height="18" fill="#c4b5fd" rx="1"/>
  <rect x="160" y="20" width="10" height="18" fill="#c4b5fd" rx="1"/>
  <rect x="170" y="20" width="10" height="18" fill="#7c3aed" rx="1"/>
  <rect x="180" y="20" width="10" height="18" fill="#c4b5fd" rx="1"/>
  <rect x="190" y="20" width="10" height="18" fill="#c4b5fd" rx="1"/>
  <rect x="200" y="20" width="10" height="18" fill="#7c3aed" rx="1"/>
  <rect x="210" y="20" width="10" height="18" fill="#c4b5fd" rx="1"/>
  <rect x="220" y="20" width="10" height="18" fill="#c4b5fd" rx="1"/>
  <rect x="230" y="20" width="10" height="18" fill="#c4b5fd" rx="1"/>
  <rect x="240" y="20" width="10" height="18" fill="#c4b5fd" rx="1"/>
  <rect x="250" y="20" width="10" height="18" fill="#c4b5fd" rx="1"/>
  <rect x="260" y="20" width="10" height="18" fill="#c4b5fd" rx="1"/>
  <rect x="270" y="20" width="10" height="18" fill="#c4b5fd" rx="1"/>
  <rect x="280" y="20" width="10" height="18" fill="#7c3aed" rx="1"/>
  <rect x="330" y="20" width="10" height="18" fill="#c4b5fd" rx="1"/>
  <rect x="340" y="20" width="10" height="18" fill="#c4b5fd" rx="1"/>
  <rect x="350" y="20" width="10" height="18" fill="#7c3aed" rx="1"/>
  <rect x="370" y="20" width="10" height="18" fill="#c4b5fd" rx="1"/>
  <rect x="380" y="20" width="10" height="18" fill="#c4b5fd" rx="1"/>
  <rect x="390" y="20" width="10" height="18" fill="#c4b5fd" rx="1"/>
  <rect x="400" y="20" width="10" height="18" fill="#c4b5fd" rx="1"/>
  <rect x="410" y="20" width="10" height="18" fill="#c4b5fd" rx="1"/>
  <rect x="420" y="20" width="10" height="18" fill="#c4b5fd" rx="1"/>
  <rect x="430" y="20" width="10" height="18" fill="#7c3aed" rx="1"/>
  <rect x="450" y="20" width="10" height="18" fill="#c4b5fd" rx="1"/>
  <rect x="460" y="20" width="10" height="18" fill="#c4b5fd" rx="1"/>
  <rect x="470" y="20" width="10" height="18" fill="#c4b5fd" rx="1"/>
  <rect x="480" y="20" width="10" height="18" fill="#c4b5fd" rx="1"/>
  <rect x="490" y="20" width="10" height="18" fill="#c4b5fd" rx="1"/>
  <rect x="500" y="20" width="10" height="18" fill="#c4b5fd" rx="1"/>
  <rect x="510" y="20" width="10" height="18" fill="#7c3aed" rx="1"/>
  <rect x="540" y="20" width="10" height="18" fill="#c4b5fd" rx="1"/>
  <rect x="550" y="20" width="10" height="18" fill="#c4b5fd" rx="1"/>
  <rect x="560" y="20" width="10" height="18" fill="#c4b5fd" rx="1"/>
  <rect x="570" y="20" width="10" height="18" fill="#c4b5fd" rx="1"/>
  <rect x="580" y="20" width="10" height="18" fill="#c4b5fd" rx="1"/>
  <rect x="590" y="20" width="10" height="18" fill="#7c3aed" rx="1"/>
  <rect x="610" y="20" width="10" height="18" fill="#c4b5fd" rx="1"/>
  <rect x="620" y="20" width="10" height="18" fill="#c4b5fd" rx="1"/>
  <rect x="630" y="20" width="10" height="18" fill="#7c3aed" rx="1"/>
  <rect x="20" y="38" width="10" height="18" fill="#c4b5fd" rx="1"/>
  <rect x="30" y="38" width="10" height="18" fill="#c4b5fd" rx="1"/>
  <rect x="40" y="38" width="10" height="18" fill="#7c3aed" rx="1"/>
  <rect x="50" y="38" width="10" height="18" fill="#7c3aed" rx="1"/>
  <rect x="60" y="38" width="10" height="18" fill="#7c3aed" rx="1"/>
  <rect x="70" y="38" width="10" height="18" fill="#c4b5fd" rx="1"/>
  <rect x="80" y="38" width="10" height="18" fill="#c4b5fd" rx="1"/>
  <rect x="90" y="38" width="10" height="18" fill="#7c3aed" rx="1"/>
  <rect x="100" y="38" width="10" height="18" fill="#c4b5fd" rx="1"/>
  <rect x="110" y="38" width="10" height="18" fill="#c4b5fd" rx="1"/>
  <rect x="120" y="38" width="10" height="18" fill="#7c3aed" rx="1"/>
  <rect x="130" y="38" width="10" height="18" fill="#7c3aed" rx="1"/>
  <rect x="140" y="38" width="10" height="18" fill="#7c3aed" rx="1"/>
  <rect x="150" y="38" width="10" height="18" fill="#7c3aed" rx="1"/>
  <rect x="160" y="38" width="10" height="18" fill="#7c3aed" rx="1"/>
  <rect x="170" y="38" width="10" height="18" fill="#7c3aed" rx="1"/>
  <rect x="180" y="38" width="10" height="18" fill="#c4b5fd" rx="1"/>
  <rect x="190" y="38" width="10" height="18" fill="#c4b5fd" rx="1"/>
  <rect x="200" y="38" width="10" height="18" fill="#7c3aed" rx="1"/>
  <rect x="210" y="38" width="10" height="18" fill="#c4b5fd" rx="1"/>
  <rect x="220" y="38" width="10" height="18" fill="#c4b5fd" rx="1"/>
  <rect x="230" y="38" width="10" height="18" fill="#7c3aed" rx="1"/>
  <rect x="240" y="38" width="10" height="18" fill="#7c3aed" rx="1"/>
  <rect x="250" y="38" width="10" height="18" fill="#7c3aed" rx="1"/>
  <rect x="260" y="38" width="10" height="18" fill="#7c3aed" rx="1"/>
  <rect x="270" y="38" width="10" height="18" fill="#7c3aed" rx="1"/>
  <rect x="280" y="38" width="10" height="18" fill="#7c3aed" rx="1"/>
  <rect x="330" y="38" width="10" height="18" fill="#c4b5fd" rx="1"/>
  <rect x="340" y="38" width="10" height="18" fill="#c4b5fd" rx="1"/>
  <rect x="350" y="38" width="10" height="18" fill="#7c3aed" rx="1"/>
  <rect x="360" y="38" width="10" height="18" fill="#c4b5fd" rx="1"/>
  <rect x="370" y="38" width="10" height="18" fill="#c4b5fd" rx="1"/>
  <rect x="380" y="38" width="10" height="18" fill="#7c3aed" rx="1"/>
  <rect x="390" y="38" width="10" height="18" fill="#7c3aed" rx="1"/>
  <rect x="400" y="38" width="10" height="18" fill="#7c3aed" rx="1"/>
  <rect x="410" y="38" width="10" height="18" fill="#7c3aed" rx="1"/>
  <rect x="420" y="38" width="10" height="18" fill="#c4b5fd" rx="1"/>
  <rect x="430" y="38" width="10" height="18" fill="#c4b5fd" rx="1"/>
  <rect x="440" y="38" width="10" height="18" fill="#7c3aed" rx="1"/>
  <rect x="450" y="38" width="10" height="18" fill="#c4b5fd" rx="1"/>
  <rect x="460" y="38" width="10" height="18" fill="#c4b5fd" rx="1"/>
  <rect x="470" y="38" width="10" height="18" fill="#7c3aed" rx="1"/>
  <rect x="480" y="38" width="10" height="18" fill="#7c3aed" rx="1"/>
  <rect x="490" y="38" width="10" height="18" fill="#7c3aed" rx="1"/>
  <rect x="500" y="38" width="10" height="18" fill="#c4b5fd" rx="1"/>
  <rect x="510" y="38" width="10" height="18" fill="#c4b5fd" rx="1"/>
  <rect x="520" y="38" width="10" height="18" fill="#7c3aed" rx="1"/>
  <rect x="530" y="38" width="10" height="18" fill="#c4b5fd" rx="1"/>
  <rect x="540" y="38" width="10" height="18" fill="#c4b5fd" rx="1"/>
  <rect x="550" y="38" width="10" height="18" fill="#7c3aed" rx="1"/>
  <rect x="560" y="38" width="10" height="18" fill="#7c3aed" rx="1"/>
  <rect x="570" y="38" width="10" height="18" fill="#7c3aed" rx="1"/>
  <rect x="580" y="38" width="10" height="18" fill="#c4b5fd" rx="1"/>
  <rect x="590" y="38" width="10" height="18" fill="#c4b5fd" rx="1"/>
  <rect x="600" y="38" width="10" height="18" fill="#7c3aed" rx="1"/>
  <rect x="610" y="38" width="10" height="18" fill="#c4b5fd" rx="1"/>
  <rect x="620" y="38" width="10" height="18" fill="#c4b5fd" rx="1"/>
  <rect x="630" y="38" width="10" height="18" fill="#7c3aed" rx="1"/>
  <rect x="20" y="56" width="10" height="18" fill="#c4b5fd" rx="1"/>
  <rect x="30" y="56" width="10" height="18" fill="#c4b5fd" rx="1"/>
  <rect x="40" y="56" width="10" height="18" fill="#c4b5fd" rx="1"/>
  <rect x="50" y="56" width="10" height="18" fill="#c4b5fd" rx="1"/>
  <rect x="60" y="56" width="10" height="18" fill="#c4b5fd" rx="1"/>
  <rect x="70" y="56" width="10" height="18" fill="#c4b5fd" rx="1"/>
  <rect x="80" y="56" width="10" height="18" fill="#c4b5fd" rx="1"/>
  <rect x="90" y="56" width="10" height="18" fill="#7c3aed" rx="1"/>
  <rect x="100" y="56" width="10" height="18" fill="#c4b5fd" rx="1"/>
  <rect x="110" y="56" width="10" height="18" fill="#c4b5fd" rx="1"/>
  <rect x="120" y="56" width="10" height="18" fill="#c4b5fd" rx="1"/>
  <rect x="130" y="56" width="10" height="18" fill="#c4b5fd" rx="1"/>
  <rect x="140" y="56" width="10" height="18" fill="#c4b5fd" rx="1"/>
  <rect x="150" y="56" width="10" height="18" fill="#c4b5fd" rx="1"/>
  <rect x="160" y="56" width="10" height="18" fill="#c4b5fd" rx="1"/>
  <rect x="170" y="56" width="10" height="18" fill="#7c3aed" rx="1"/>
  <rect x="180" y="56" width="10" height="18" fill="#c4b5fd" rx="1"/>
  <rect x="190" y="56" width="10" height="18" fill="#c4b5fd" rx="1"/>
  <rect x="200" y="56" width="10" height="18" fill="#7c3aed" rx="1"/>
  <rect x="210" y="56" width="10" height="18" fill="#c4b5fd" rx="1"/>
  <rect x="220" y="56" width="10" height="18" fill="#c4b5fd" rx="1"/>
  <rect x="230" y="56" width="10" height="18" fill="#c4b5fd" rx="1"/>
  <rect x="240" y="56" width="10" height="18" fill="#c4b5fd" rx="1"/>
  <rect x="250" y="56" width="10" height="18" fill="#c4b5fd" rx="1"/>
  <rect x="260" y="56" width="10" height="18" fill="#7c3aed" rx="1"/>
  <rect x="330" y="56" width="10" height="18" fill="#c4b5fd" rx="1"/>
  <rect x="340" y="56" width="10" height="18" fill="#c4b5fd" rx="1"/>
  <rect x="350" y="56" width="10" height="18" fill="#7c3aed" rx="1"/>
  <rect x="360" y="56" width="10" height="18" fill="#c4b5fd" rx="1"/>
  <rect x="370" y="56" width="10" height="18" fill="#c4b5fd" rx="1"/>
  <rect x="380" y="56" width="10" height="18" fill="#7c3aed" rx="1"/>
  <rect x="420" y="56" width="10" height="18" fill="#c4b5fd" rx="1"/>
  <rect x="430" y="56" width="10" height="18" fill="#c4b5fd" rx="1"/>
  <rect x="440" y="56" width="10" height="18" fill="#7c3aed" rx="1"/>
  <rect x="450" y="56" width="10" height="18" fill="#c4b5fd" rx="1"/>
  <rect x="460" y="56" width="10" height="18" fill="#c4b5fd" rx="1"/>
  <rect x="470" y="56" width="10" height="18" fill="#c4b5fd" rx="1"/>
  <rect x="480" y="56" width="10" height="18" fill="#c4b5fd" rx="1"/>
  <rect x="490" y="56" width="10" height="18" fill="#c4b5fd" rx="1"/>
  <rect x="500" y="56" width="10" height="18" fill="#c4b5fd" rx="1"/>
  <rect x="510" y="56" width="10" height="18" fill="#7c3aed" rx="1"/>
  <rect x="520" y="56" width="10" height="18" fill="#7c3aed" rx="1"/>
  <rect x="530" y="56" width="10" height="18" fill="#c4b5fd" rx="1"/>
  <rect x="540" y="56" width="10" height="18" fill="#c4b5fd" rx="1"/>
  <rect x="550" y="56" width="10" height="18" fill="#c4b5fd" rx="1"/>
  <rect x="560" y="56" width="10" height="18" fill="#c4b5fd" rx="1"/>
  <rect x="570" y="56" width="10" height="18" fill="#c4b5fd" rx="1"/>
  <rect x="580" y="56" width="10" height="18" fill="#c4b5fd" rx="1"/>
  <rect x="590" y="56" width="10" height="18" fill="#c4b5fd" rx="1"/>
  <rect x="600" y="56" width="10" height="18" fill="#7c3aed" rx="1"/>
  <rect x="610" y="56" width="10" height="18" fill="#c4b5fd" rx="1"/>
  <rect x="620" y="56" width="10" height="18" fill="#c4b5fd" rx="1"/>
  <rect x="630" y="56" width="10" height="18" fill="#7c3aed" rx="1"/>
  <rect x="20" y="74" width="10" height="18" fill="#c4b5fd" rx="1"/>
  <rect x="30" y="74" width="10" height="18" fill="#c4b5fd" rx="1"/>
  <rect x="40" y="74" width="10" height="18" fill="#7c3aed" rx="1"/>
  <rect x="50" y="74" width="10" height="18" fill="#7c3aed" rx="1"/>
  <rect x="60" y="74" width="10" height="18" fill="#7c3aed" rx="1"/>
  <rect x="70" y="74" width="10" height="18" fill="#c4b5fd" rx="1"/>
  <rect x="80" y="74" width="10" height="18" fill="#c4b5fd" rx="1"/>
  <rect x="90" y="74" width="10" height="18" fill="#7c3aed" rx="1"/>
  <rect x="100" y="74" width="10" height="18" fill="#7c3aed" rx="1"/>
  <rect x="110" y="74" width="10" height="18" fill="#7c3aed" rx="1"/>
  <rect x="120" y="74" width="10" height="18" fill="#7c3aed" rx="1"/>
  <rect x="130" y="74" width="10" height="18" fill="#7c3aed" rx="1"/>
  <rect x="140" y="74" width="10" height="18" fill="#7c3aed" rx="1"/>
  <rect x="150" y="74" width="10" height="18" fill="#c4b5fd" rx="1"/>
  <rect x="160" y="74" width="10" height="18" fill="#c4b5fd" rx="1"/>
  <rect x="170" y="74" width="10" height="18" fill="#7c3aed" rx="1"/>
  <rect x="180" y="74" width="10" height="18" fill="#c4b5fd" rx="1"/>
  <rect x="190" y="74" width="10" height="18" fill="#c4b5fd" rx="1"/>
  <rect x="200" y="74" width="10" height="18" fill="#7c3aed" rx="1"/>
  <rect x="210" y="74" width="10" height="18" fill="#c4b5fd" rx="1"/>
  <rect x="220" y="74" width="10" height="18" fill="#c4b5fd" rx="1"/>
  <rect x="230" y="74" width="10" height="18" fill="#7c3aed" rx="1"/>
  <rect x="240" y="74" width="10" height="18" fill="#7c3aed" rx="1"/>
  <rect x="250" y="74" width="10" height="18" fill="#7c3aed" rx="1"/>
  <rect x="260" y="74" width="10" height="18" fill="#7c3aed" rx="1"/>
  <rect x="330" y="74" width="10" height="18" fill="#c4b5fd" rx="1"/>
  <rect x="340" y="74" width="10" height="18" fill="#c4b5fd" rx="1"/>
  <rect x="350" y="74" width="10" height="18" fill="#7c3aed" rx="1"/>
  <rect x="360" y="74" width="10" height="18" fill="#c4b5fd" rx="1"/>
  <rect x="370" y="74" width="10" height="18" fill="#c4b5fd" rx="1"/>
  <rect x="380" y="74" width="10" height="18" fill="#7c3aed" rx="1"/>
  <rect x="390" y="83" width="10" height="9" fill="#c4b5fd" rx="1"/>
  <rect x="400" y="83" width="10" height="9" fill="#c4b5fd" rx="1"/>
  <rect x="420" y="74" width="10" height="18" fill="#c4b5fd" rx="1"/>
  <rect x="430" y="74" width="10" height="18" fill="#c4b5fd" rx="1"/>
  <rect x="440" y="74" width="10" height="18" fill="#7c3aed" rx="1"/>
  <rect x="450" y="74" width="10" height="18" fill="#c4b5fd" rx="1"/>
  <rect x="460" y="74" width="10" height="18" fill="#c4b5fd" rx="1"/>
  <rect x="470" y="74" width="10" height="18" fill="#7c3aed" rx="1"/>
  <rect x="480" y="74" width="10" height="18" fill="#7c3aed" rx="1"/>
  <rect x="490" y="74" width="10" height="18" fill="#7c3aed" rx="1"/>
  <rect x="500" y="74" width="10" height="18" fill="#c4b5fd" rx="1"/>
  <rect x="510" y="74" width="10" height="18" fill="#c4b5fd" rx="1"/>
  <rect x="520" y="74" width="10" height="18" fill="#7c3aed" rx="1"/>
  <rect x="530" y="74" width="10" height="18" fill="#c4b5fd" rx="1"/>
  <rect x="540" y="74" width="10" height="18" fill="#c4b5fd" rx="1"/>
  <rect x="550" y="74" width="10" height="18" fill="#7c3aed" rx="1"/>
  <rect x="560" y="74" width="10" height="18" fill="#7c3aed" rx="1"/>
  <rect x="570" y="74" width="10" height="18" fill="#7c3aed" rx="1"/>
  <rect x="580" y="74" width="10" height="18" fill="#c4b5fd" rx="1"/>
  <rect x="590" y="74" width="10" height="18" fill="#c4b5fd" rx="1"/>
  <rect x="600" y="74" width="10" height="18" fill="#7c3aed" rx="1"/>
  <rect x="610" y="74" width="10" height="18" fill="#c4b5fd" rx="1"/>
  <rect x="620" y="74" width="10" height="18" fill="#c4b5fd" rx="1"/>
  <rect x="630" y="74" width="10" height="18" fill="#7c3aed" rx="1"/>
  <rect x="20" y="92" width="10" height="18" fill="#c4b5fd" rx="1"/>
  <rect x="30" y="92" width="10" height="18" fill="#c4b5fd" rx="1"/>
  <rect x="40" y="92" width="10" height="18" fill="#7c3aed" rx="1"/>
  <rect x="70" y="92" width="10" height="18" fill="#c4b5fd" rx="1"/>
  <rect x="80" y="92" width="10" height="18" fill="#c4b5fd" rx="1"/>
  <rect x="90" y="92" width="10" height="18" fill="#7c3aed" rx="1"/>
  <rect x="100" y="92" width="10" height="18" fill="#c4b5fd" rx="1"/>
  <rect x="110" y="92" width="10" height="18" fill="#c4b5fd" rx="1"/>
  <rect x="120" y="92" width="10" height="18" fill="#c4b5fd" rx="1"/>
  <rect x="130" y="92" width="10" height="18" fill="#c4b5fd" rx="1"/>
  <rect x="140" y="92" width="10" height="18" fill="#c4b5fd" rx="1"/>
  <rect x="150" y="92" width="10" height="18" fill="#c4b5fd" rx="1"/>
  <rect x="160" y="92" width="10" height="18" fill="#c4b5fd" rx="1"/>
  <rect x="170" y="92" width="10" height="18" fill="#7c3aed" rx="1"/>
  <rect x="180" y="92" width="10" height="18" fill="#c4b5fd" rx="1"/>
  <rect x="190" y="92" width="10" height="18" fill="#c4b5fd" rx="1"/>
  <rect x="200" y="92" width="10" height="18" fill="#7c3aed" rx="1"/>
  <rect x="210" y="92" width="10" height="18" fill="#c4b5fd" rx="1"/>
  <rect x="220" y="92" width="10" height="18" fill="#c4b5fd" rx="1"/>
  <rect x="230" y="92" width="10" height="18" fill="#7c3aed" rx="1"/>
  <rect x="330" y="92" width="10" height="18" fill="#c4b5fd" rx="1"/>
  <rect x="340" y="92" width="10" height="18" fill="#c4b5fd" rx="1"/>
  <rect x="350" y="92" width="10" height="18" fill="#7c3aed" rx="1"/>
  <rect x="360" y="92" width="10" height="18" fill="#7c3aed" rx="1"/>
  <rect x="370" y="92" width="10" height="18" fill="#c4b5fd" rx="1"/>
  <rect x="380" y="92" width="10" height="18" fill="#c4b5fd" rx="1"/>
  <rect x="390" y="92" width="10" height="18" fill="#c4b5fd" rx="1"/>
  <rect x="400" y="92" width="10" height="18" fill="#c4b5fd" rx="1"/>
  <rect x="410" y="92" width="10" height="18" fill="#c4b5fd" rx="1"/>
  <rect x="420" y="92" width="10" height="18" fill="#c4b5fd" rx="1"/>
  <rect x="430" y="92" width="10" height="18" fill="#7c3aed" rx="1"/>
  <rect x="440" y="92" width="10" height="18" fill="#7c3aed" rx="1"/>
  <rect x="450" y="92" width="10" height="18" fill="#c4b5fd" rx="1"/>
  <rect x="460" y="92" width="10" height="18" fill="#c4b5fd" rx="1"/>
  <rect x="470" y="92" width="10" height="18" fill="#c4b5fd" rx="1"/>
  <rect x="480" y="92" width="10" height="18" fill="#c4b5fd" rx="1"/>
  <rect x="490" y="92" width="10" height="18" fill="#c4b5fd" rx="1"/>
  <rect x="500" y="92" width="10" height="18" fill="#c4b5fd" rx="1"/>
  <rect x="510" y="92" width="10" height="18" fill="#7c3aed" rx="1"/>
  <rect x="520" y="92" width="10" height="18" fill="#7c3aed" rx="1"/>
  <rect x="530" y="92" width="10" height="18" fill="#c4b5fd" rx="1"/>
  <rect x="540" y="92" width="10" height="18" fill="#c4b5fd" rx="1"/>
  <rect x="550" y="92" width="10" height="18" fill="#7c3aed" rx="1"/>
  <rect x="580" y="92" width="10" height="18" fill="#c4b5fd" rx="1"/>
  <rect x="590" y="92" width="10" height="18" fill="#c4b5fd" rx="1"/>
  <rect x="600" y="92" width="10" height="18" fill="#7c3aed" rx="1"/>
  <rect x="610" y="92" width="10" height="18" fill="#c4b5fd" rx="1"/>
  <rect x="620" y="92" width="10" height="18" fill="#c4b5fd" rx="1"/>
  <rect x="630" y="92" width="10" height="18" fill="#c4b5fd" rx="1"/>
  <rect x="640" y="92" width="10" height="18" fill="#c4b5fd" rx="1"/>
  <rect x="650" y="92" width="10" height="18" fill="#c4b5fd" rx="1"/>
  <rect x="660" y="92" width="10" height="18" fill="#c4b5fd" rx="1"/>
  <rect x="670" y="92" width="10" height="18" fill="#c4b5fd" rx="1"/>
  <rect x="680" y="92" width="10" height="18" fill="#7c3aed" rx="1"/>
  <rect x="20" y="110" width="10" height="18" fill="#7c3aed" rx="1"/>
  <rect x="30" y="110" width="10" height="18" fill="#7c3aed" rx="1"/>
  <rect x="40" y="110" width="10" height="18" fill="#7c3aed" rx="1"/>
  <rect x="70" y="110" width="10" height="18" fill="#7c3aed" rx="1"/>
  <rect x="80" y="110" width="10" height="18" fill="#7c3aed" rx="1"/>
  <rect x="90" y="110" width="10" height="18" fill="#7c3aed" rx="1"/>
  <rect x="100" y="110" width="10" height="18" fill="#7c3aed" rx="1"/>
  <rect x="110" y="110" width="10" height="18" fill="#7c3aed" rx="1"/>
  <rect x="120" y="110" width="10" height="18" fill="#7c3aed" rx="1"/>
  <rect x="130" y="110" width="10" height="18" fill="#7c3aed" rx="1"/>
  <rect x="140" y="110" width="10" height="18" fill="#7c3aed" rx="1"/>
  <rect x="150" y="110" width="10" height="18" fill="#7c3aed" rx="1"/>
  <rect x="160" y="110" width="10" height="18" fill="#7c3aed" rx="1"/>
  <rect x="170" y="110" width="10" height="18" fill="#7c3aed" rx="1"/>
  <rect x="180" y="110" width="10" height="18" fill="#7c3aed" rx="1"/>
  <rect x="190" y="110" width="10" height="18" fill="#7c3aed" rx="1"/>
  <rect x="200" y="110" width="10" height="18" fill="#7c3aed" rx="1"/>
  <rect x="210" y="110" width="10" height="18" fill="#7c3aed" rx="1"/>
  <rect x="220" y="110" width="10" height="18" fill="#7c3aed" rx="1"/>
  <rect x="230" y="110" width="10" height="18" fill="#7c3aed" rx="1"/>
  <rect x="330" y="110" width="10" height="18" fill="#7c3aed" rx="1"/>
  <rect x="340" y="110" width="10" height="18" fill="#7c3aed" rx="1"/>
  <rect x="350" y="110" width="10" height="18" fill="#7c3aed" rx="1"/>
  <rect x="370" y="110" width="10" height="18" fill="#7c3aed" rx="1"/>
  <rect x="380" y="110" width="10" height="18" fill="#7c3aed" rx="1"/>
  <rect x="390" y="110" width="10" height="18" fill="#7c3aed" rx="1"/>
  <rect x="400" y="110" width="10" height="9" fill="#c4b5fd" rx="1"/>
  <rect x="410" y="110" width="10" height="9" fill="#c4b5fd" rx="1"/>
  <rect x="420" y="110" width="10" height="18" fill="#7c3aed" rx="1"/>
  <rect x="430" y="110" width="10" height="18" fill="#7c3aed" rx="1"/>
  <rect x="450" y="110" width="10" height="18" fill="#7c3aed" rx="1"/>
  <rect x="460" y="110" width="10" height="18" fill="#7c3aed" rx="1"/>
  <rect x="470" y="110" width="10" height="18" fill="#7c3aed" rx="1"/>
  <rect x="480" y="110" width="10" height="18" fill="#7c3aed" rx="1"/>
  <rect x="490" y="110" width="10" height="18" fill="#7c3aed" rx="1"/>
  <rect x="500" y="110" width="10" height="18" fill="#7c3aed" rx="1"/>
  <rect x="510" y="110" width="10" height="18" fill="#7c3aed" rx="1"/>
  <rect x="530" y="110" width="10" height="18" fill="#7c3aed" rx="1"/>
  <rect x="540" y="110" width="10" height="18" fill="#7c3aed" rx="1"/>
  <rect x="550" y="110" width="10" height="18" fill="#7c3aed" rx="1"/>
  <rect x="580" y="110" width="10" height="18" fill="#7c3aed" rx="1"/>
  <rect x="590" y="110" width="10" height="18" fill="#7c3aed" rx="1"/>
  <rect x="600" y="110" width="10" height="18" fill="#7c3aed" rx="1"/>
  <rect x="610" y="110" width="10" height="18" fill="#7c3aed" rx="1"/>
  <rect x="620" y="110" width="10" height="18" fill="#7c3aed" rx="1"/>
  <rect x="630" y="110" width="10" height="18" fill="#7c3aed" rx="1"/>
  <rect x="640" y="110" width="10" height="18" fill="#7c3aed" rx="1"/>
  <rect x="650" y="110" width="10" height="18" fill="#7c3aed" rx="1"/>
  <rect x="660" y="110" width="10" height="18" fill="#7c3aed" rx="1"/>
  <rect x="670" y="110" width="10" height="18" fill="#7c3aed" rx="1"/>
  <rect x="680" y="110" width="10" height="18" fill="#7c3aed" rx="1"/>
</svg>
